<svg width="18" height="18" viewBox="0 0 18 18" fill="none" xmlns="http://www.w3.org/2000/svg">
<g clip-path="url(#clip0_437_64)">
<path d="M6.82605 0.00738525C6.8231 0.00885677 6.60969 0.0162153 6.35066 0.0206308C6.09162 0.0265179 5.85614 0.0338774 5.82817 0.0368204C5.80021 0.0382929 5.67069 0.0456514 5.54117 0.0515385C5.41165 0.055954 5.28655 0.0633135 5.26153 0.0662565C5.23798 0.0692005 5.1482 0.0765591 5.06284 0.0809746C4.97748 0.0868616 4.88917 0.0927486 4.86415 0.0956926C4.8406 0.0986357 4.76995 0.105995 4.70961 0.110411C4.21362 0.150148 3.59841 0.248758 3.15099 0.360615C2.10454 0.624065 1.40691 1.05824 0.963905 1.72349C0.439948 2.50943 0.16178 3.67214 0.0587545 5.50452C0.013129 6.31401 -0.0236657 8.93527 0.0116572 8.91319C0.020488 8.9073 0.21918 8.897 0.451722 8.88964C2.78009 8.81164 3.77355 8.73216 4.66546 8.55113C5.59857 8.36274 6.27707 8.06986 6.8805 7.59888C7.76799 6.9042 8.30667 5.95195 8.5657 4.61851C8.74526 3.68833 8.81738 2.75963 8.89832 0.297328L8.90863 -0.00144577L7.86954 0.00149822C7.29702 0.00296974 6.82752 0.00591278 6.82605 0.00738525Z" fill="#333333"/>
<path d="M9.10135 0.18564C9.10724 0.290137 9.11754 0.584496 9.1249 0.839115C9.21321 3.57665 9.37658 4.80706 9.78279 5.80641C10.2744 7.01475 11.2251 7.90077 12.4879 8.32759C13.4726 8.66021 14.7045 8.80003 17.3743 8.88245C17.52 8.88687 17.7216 8.89422 17.8217 8.89864L18.0042 8.90747L17.9954 7.63732C17.991 6.93822 17.9836 6.32595 17.9792 6.27738C17.9763 6.22881 17.9689 6.05956 17.963 5.90207C17.9571 5.74459 17.9512 5.58858 17.9483 5.5562C17.9453 5.52382 17.938 5.4208 17.9336 5.32808C17.9115 4.92186 17.8615 4.41115 17.7996 3.99611C17.598 2.63617 17.183 1.6957 16.5471 1.16291C16.0394 0.737562 15.3727 0.452034 14.4675 0.273948C14.2305 0.226851 13.8037 0.162091 13.5918 0.140015C13.5432 0.135599 13.477 0.128241 13.4446 0.125297C13.3195 0.110579 13.2489 0.104692 13.1355 0.0958614C13.0708 0.0914459 12.9913 0.0840864 12.9589 0.0811434C12.9265 0.0781994 12.8176 0.0708408 12.7161 0.0649538C12.6145 0.0605383 12.5085 0.0531788 12.4806 0.0517073C12.4526 0.0487642 12.2966 0.0414047 12.1347 0.0369892C11.9728 0.0311022 11.8006 0.0237436 11.752 0.0207996C11.7035 0.0178566 11.0853 0.0104971 10.3789 0.00608158L9.09399 -0.00422096L9.10135 0.18564Z" fill="#333333"/>
<path d="M0.00441522 10.2614C0.0191331 11.9952 0.0529843 12.7635 0.15601 13.626C0.351758 15.2832 0.799182 16.3355 1.55274 16.9125C1.80883 17.1097 2.20474 17.3246 2.53148 17.4453C3.20997 17.6969 4.08275 17.8515 5.22486 17.9251C5.63843 17.953 5.69436 17.9545 5.99755 17.9648C6.15944 17.9692 6.34195 17.9751 6.40229 17.978C6.46263 17.9825 7.05429 17.9898 7.7166 17.9942C8.74832 18.0031 8.91905 18.0016 8.91316 17.9839C8.90875 17.9722 8.89845 17.7381 8.88961 17.4629C8.81161 14.9859 8.70711 13.8688 8.46132 12.9224C8.3112 12.3411 8.10221 11.851 7.81521 11.4168C7.18528 10.4572 6.27277 9.83904 5.01881 9.5226C4.11071 9.293 2.948 9.18556 0.544562 9.1105C0.264922 9.10167 0.0279639 9.09136 0.0161895 9.08695C-0.00147194 9.08106 -0.00294373 9.24737 0.00441522 10.2614Z" fill="#333333"/>
<path d="M17.5658 9.10614C16.2014 9.15471 15.6569 9.17973 15.1005 9.22094C13.0415 9.37401 11.9215 9.72135 11.0031 10.494C10.226 11.1475 9.72556 12.0394 9.47241 13.2169C9.27372 14.15 9.1913 15.1287 9.11035 17.563C9.10299 17.7868 9.09269 17.9781 9.08681 17.9884C9.07945 18.0002 9.37086 18.0016 10.2745 17.9943C10.9339 17.9899 11.5285 17.9825 11.5977 17.9781C11.6669 17.9751 11.8582 17.9693 12.0245 17.9634C12.1908 17.959 12.3601 17.9516 12.3998 17.9487C12.441 17.9457 12.5558 17.9384 12.6574 17.9339C13.9069 17.8736 15.0108 17.6602 15.7319 17.3379C16.7416 16.889 17.3023 16.156 17.6291 14.8579C17.7939 14.2044 17.866 13.6628 17.9485 12.4589C17.9514 12.4015 17.9588 12.2366 17.9632 12.0909C17.9691 11.9452 17.9749 11.7833 17.9794 11.7303C17.9838 11.6774 17.9911 11.0636 17.9956 10.3645L18.0044 9.09584L17.844 9.09879C17.7557 9.10026 17.6306 9.1032 17.5658 9.10614Z" fill="#333333"/>
</g>
<defs>
<clipPath id="clip0_437_64">
<rect width="18" height="18" fill="white"/>
</clipPath>
</defs>
</svg>
